<svg width="94" height="20" viewBox="0 0 94 20" fill="none" xmlns="http://www.w3.org/2000/svg">
<path d="M92.8371 3.24C92.8371 3.57734 92.8297 4.06867 92.8151 4.71401C92.8004 5.34467 92.7711 6.03401 92.7271 6.78201C92.6831 7.51534 92.6244 8.25601 92.5511 9.00401C92.4777 9.73734 92.3897 10.3753 92.2871 10.918C92.2284 10.962 92.1404 11.006 92.0231 11.05C91.9057 11.094 91.7811 11.1307 91.6491 11.16C91.5171 11.1893 91.3851 11.2113 91.2531 11.226C91.1211 11.2407 91.0037 11.248 90.9011 11.248C90.4757 11.248 90.1164 11.182 89.8231 11.05C89.5444 10.918 89.3684 10.6613 89.2951 10.28C89.2217 9.94267 89.1557 9.42934 89.0971 8.74001C89.0531 8.05067 89.0091 7.30267 88.9651 6.49601C88.9211 5.68934 88.8844 4.89001 88.8551 4.09801C88.8404 3.30601 88.8331 2.63134 88.8331 2.07401C89.1264 1.91267 89.4564 1.788 89.8231 1.7C90.2044 1.59734 90.5784 1.54601 90.9451 1.54601C91.5464 1.54601 92.0084 1.68534 92.3311 1.96401C92.6684 2.24267 92.8371 2.668 92.8371 3.24ZM88.7891 14.328C88.7891 13.7267 88.9724 13.2353 89.3391 12.854C89.7204 12.458 90.2411 12.26 90.9011 12.26C91.5611 12.26 92.0744 12.458 92.4411 12.854C92.8224 13.2353 93.0131 13.7267 93.0131 14.328C93.0131 14.9293 92.8224 15.428 92.4411 15.824C92.0744 16.2053 91.5611 16.396 90.9011 16.396C90.2411 16.396 89.7204 16.2053 89.3391 15.824C88.9724 15.428 88.7891 14.9293 88.7891 14.328Z" fill="#FF0000"/>
<path d="M87.0139 14.064C86.9406 14.7533 86.7352 15.2813 86.3979 15.648C86.0752 16.0147 85.5986 16.198 84.9679 16.198C84.4986 16.198 84.0806 16.088 83.7139 15.868C83.3472 15.6333 82.9512 15.2447 82.5259 14.702L80.3479 11.974V15.978C80.1866 16.0073 79.9446 16.044 79.6219 16.088C79.3139 16.1467 78.9986 16.176 78.6759 16.176C78.3532 16.176 78.0599 16.154 77.7959 16.11C77.5466 16.066 77.3339 15.978 77.1579 15.846C76.9819 15.714 76.8426 15.538 76.7399 15.318C76.6519 15.0833 76.6079 14.7827 76.6079 14.416V1.67801C76.7692 1.63401 77.0039 1.59001 77.3119 1.54601C77.6346 1.48734 77.9572 1.45801 78.2799 1.45801C78.6026 1.45801 78.8886 1.48001 79.1379 1.52401C79.4019 1.56801 79.6219 1.65601 79.7979 1.78801C79.9739 1.92001 80.1059 2.10334 80.1939 2.33801C80.2966 2.55801 80.3479 2.85134 80.3479 3.21801V9.02601L84.1319 5.15401C84.8946 5.15401 85.5032 5.32267 85.9579 5.66001C86.4272 5.99734 86.6619 6.42267 86.6619 6.93601C86.6619 7.15601 86.6252 7.36134 86.5519 7.55201C86.4786 7.72801 86.3612 7.91134 86.1999 8.10201C86.0532 8.29267 85.8552 8.49801 85.6059 8.71801C85.3712 8.92334 85.0926 9.16534 84.7699 9.44401L83.4939 10.544L87.0139 14.064Z" fill="#FF0000"/>
<path d="M63.7592 5.46199C63.9059 5.41799 64.1332 5.37399 64.4412 5.32999C64.7639 5.28599 65.0939 5.26399 65.4312 5.26399C65.7539 5.26399 66.0399 5.28599 66.2892 5.32999C66.5532 5.37399 66.7732 5.46199 66.9492 5.59399C67.1252 5.72599 67.2572 5.90933 67.3452 6.14399C67.4479 6.36399 67.4992 6.65733 67.4992 7.02399V11.754C67.4992 12.3553 67.6459 12.788 67.9392 13.052C68.2326 13.3013 68.6579 13.426 69.2152 13.426C69.5526 13.426 69.8239 13.3967 70.0292 13.338C70.2492 13.2793 70.4179 13.2207 70.5352 13.162V5.46199C70.6819 5.41799 70.9092 5.37399 71.2172 5.32999C71.5399 5.28599 71.8699 5.26399 72.2072 5.26399C72.5299 5.26399 72.8159 5.28599 73.0652 5.32999C73.3292 5.37399 73.5492 5.46199 73.7252 5.59399C73.9012 5.72599 74.0332 5.90933 74.1212 6.14399C74.2239 6.36399 74.2752 6.65733 74.2752 7.02399V13.712C74.2752 14.4453 73.9672 14.9953 73.3512 15.362C72.8379 15.6847 72.2219 15.9267 71.5032 16.088C70.7992 16.264 70.0292 16.352 69.1932 16.352C68.4012 16.352 67.6679 16.264 66.9932 16.088C66.3332 15.912 65.7612 15.6407 65.2772 15.274C64.7932 14.9073 64.4192 14.438 64.1552 13.866C63.8912 13.2793 63.7592 12.5753 63.7592 11.754V5.46199Z" fill="#FF0000"/>
<path d="M58.8381 15.912C58.6767 15.956 58.4274 16 58.0901 16.044C57.7527 16.088 57.4227 16.11 57.1001 16.11C56.4254 16.11 55.9194 16 55.5821 15.78C55.2447 15.5453 55.0761 15.0613 55.0761 14.328V11.358C54.7094 10.8153 54.3134 10.214 53.8881 9.554C53.4627 8.894 53.0447 8.21934 52.6341 7.53001C52.2234 6.84067 51.8421 6.16601 51.4901 5.50601C51.1381 4.83134 50.8521 4.21534 50.6321 3.658C50.8227 3.394 51.0794 3.152 51.4021 2.932C51.7394 2.71201 52.1501 2.60201 52.6341 2.60201C53.2061 2.60201 53.6681 2.71934 54.0201 2.954C54.3867 3.18867 54.7314 3.62867 55.0541 4.274L56.8801 7.948H57.0121C57.2174 7.49334 57.3934 7.08267 57.5401 6.71601C57.7014 6.33467 57.8554 5.96067 58.0021 5.59401C58.1487 5.21267 58.3027 4.82401 58.4641 4.42801C58.6254 4.01734 58.8087 3.54801 59.0141 3.02001C59.2781 2.88801 59.5714 2.78534 59.8941 2.712C60.2167 2.63867 60.5247 2.60201 60.8181 2.60201C61.3314 2.60201 61.7641 2.74134 62.1161 3.02001C62.4827 3.28401 62.6661 3.68734 62.6661 4.23001C62.6661 4.40601 62.6294 4.61867 62.5561 4.868C62.4827 5.11734 62.3141 5.49867 62.0501 6.012C61.7861 6.51067 61.3974 7.19267 60.8841 8.05801C60.3854 8.92334 59.7034 10.0527 58.8381 11.446V15.912Z" fill="#FF0000"/>
<path d="M45.261 13.624C45.5104 13.624 45.7817 13.602 46.075 13.558C46.383 13.4993 46.6104 13.426 46.757 13.338V11.578L45.173 11.71C44.7624 11.7393 44.425 11.8273 44.161 11.974C43.897 12.1207 43.765 12.3407 43.765 12.634C43.765 12.9273 43.875 13.1693 44.095 13.36C44.3297 13.536 44.7184 13.624 45.261 13.624ZM45.085 4.978C45.877 4.978 46.5957 5.05866 47.241 5.22C47.901 5.38133 48.4584 5.63066 48.913 5.968C49.3824 6.29066 49.7417 6.70866 49.991 7.222C50.2404 7.72066 50.365 8.31466 50.365 9.004V13.932C50.365 14.3133 50.255 14.6287 50.035 14.878C49.8297 15.1127 49.5804 15.318 49.287 15.494C48.3337 16.066 46.9917 16.352 45.261 16.352C44.4837 16.352 43.7797 16.2787 43.149 16.132C42.533 15.9853 41.9977 15.7653 41.543 15.472C41.103 15.1787 40.7584 14.8047 40.509 14.35C40.2744 13.8953 40.157 13.3673 40.157 12.766C40.157 11.754 40.4577 10.9767 41.059 10.434C41.6604 9.89133 42.5917 9.554 43.853 9.422L46.735 9.114V8.96C46.735 8.53466 46.5444 8.234 46.163 8.058C45.7964 7.86733 45.261 7.772 44.557 7.772C43.9997 7.772 43.457 7.83066 42.929 7.948C42.401 8.06533 41.9244 8.212 41.499 8.388C41.3084 8.256 41.147 8.058 41.015 7.794C40.883 7.51533 40.817 7.22933 40.817 6.936C40.817 6.55466 40.905 6.254 41.081 6.034C41.2717 5.79933 41.5577 5.60133 41.939 5.44C42.3644 5.27866 42.863 5.16133 43.435 5.088C44.0217 5.01466 44.5717 4.978 45.085 4.978Z" fill="#FF0000"/>
<path d="M34.3906 2.338C34.3906 1.78067 34.5739 1.31133 34.9406 0.930001C35.3219 0.548668 35.8206 0.358002 36.4366 0.358002C37.0526 0.358002 37.544 0.548668 37.9106 0.930001C38.292 1.31133 38.4826 1.78067 38.4826 2.338C38.4826 2.89534 38.292 3.36467 37.9106 3.746C37.544 4.12734 37.0526 4.318 36.4366 4.318C35.8206 4.318 35.3219 4.12734 34.9406 3.746C34.5739 3.36467 34.3906 2.89534 34.3906 2.338ZM33.6426 17.496C33.9653 17.2907 34.2 17.0047 34.3466 16.638C34.4933 16.286 34.5666 15.89 34.5666 15.45V5.462C34.7279 5.43267 34.9626 5.396 35.2706 5.352C35.5933 5.29333 35.916 5.264 36.2386 5.264C36.5613 5.264 36.8473 5.286 37.0966 5.33C37.3606 5.374 37.5806 5.462 37.7566 5.594C37.9326 5.726 38.0646 5.90934 38.1526 6.144C38.2553 6.364 38.3066 6.65733 38.3066 7.024V15.802C38.3066 16.418 38.2333 16.9753 38.0866 17.474C37.9399 17.9727 37.7273 18.398 37.4486 18.75C37.1846 19.1167 36.8546 19.3953 36.4586 19.586C36.0773 19.7913 35.6446 19.894 35.1606 19.894C34.5153 19.894 34.0093 19.696 33.6426 19.3C33.2759 18.9187 33.0853 18.4347 33.0706 17.848L33.6426 17.496Z" fill="#FF0000"/>
<path d="M29.0637 15.978C28.917 16.022 28.6823 16.066 28.3597 16.11C28.0517 16.154 27.729 16.176 27.3917 16.176C27.069 16.176 26.7757 16.154 26.5117 16.11C26.2623 16.066 26.0497 15.978 25.8737 15.846C25.6977 15.714 25.5583 15.538 25.4557 15.318C25.3677 15.0833 25.3237 14.7827 25.3237 14.416V7.816C25.3237 7.47867 25.3823 7.19267 25.4997 6.958C25.6317 6.70867 25.815 6.48867 26.0497 6.298C26.2843 6.10733 26.5703 5.93867 26.9077 5.792C27.2597 5.63067 27.6337 5.49133 28.0297 5.374C28.4257 5.25667 28.8363 5.16867 29.2617 5.11C29.687 5.03667 30.1123 5 30.5377 5C31.2417 5 31.799 5.13933 32.2097 5.418C32.6203 5.682 32.8257 6.122 32.8257 6.738C32.8257 6.94333 32.7963 7.14867 32.7377 7.354C32.679 7.54467 32.6057 7.72067 32.5177 7.882C32.2097 7.882 31.8943 7.89667 31.5717 7.926C31.249 7.95533 30.9337 7.99933 30.6257 8.058C30.3177 8.11667 30.0243 8.18267 29.7457 8.256C29.4817 8.31467 29.2543 8.388 29.0637 8.476V15.978Z" fill="#FF0000"/>
<path d="M18.9035 16.352C18.0381 16.352 17.2315 16.2347 16.4835 16C15.7501 15.7507 15.1048 15.384 14.5475 14.9C14.0048 14.416 13.5721 13.8073 13.2495 13.074C12.9415 12.3407 12.7875 11.4827 12.7875 10.5C12.7875 9.532 12.9415 8.70333 13.2495 8.014C13.5721 7.31 13.9901 6.738 14.5035 6.298C15.0168 5.84333 15.6035 5.51333 16.2635 5.308C16.9235 5.088 17.5981 4.978 18.2875 4.978C19.0648 4.978 19.7688 5.09533 20.3995 5.33C21.0448 5.56466 21.5948 5.88733 22.0495 6.298C22.5188 6.70866 22.8781 7.2 23.1275 7.772C23.3915 8.344 23.5235 8.96733 23.5235 9.642C23.5235 10.1407 23.3841 10.522 23.1055 10.786C22.8268 11.05 22.4381 11.2187 21.9395 11.292L16.5055 12.106C16.6668 12.59 16.9968 12.9567 17.4955 13.206C17.9941 13.4407 18.5661 13.558 19.2115 13.558C19.8128 13.558 20.3775 13.4847 20.9055 13.338C21.4481 13.1767 21.8881 12.9933 22.2255 12.788C22.4601 12.9347 22.6581 13.14 22.8195 13.404C22.9808 13.668 23.0615 13.9467 23.0615 14.24C23.0615 14.9 22.7535 15.3913 22.1375 15.714C21.6681 15.9633 21.1401 16.132 20.5535 16.22C19.9668 16.308 19.4168 16.352 18.9035 16.352ZM18.2875 7.706C17.9355 7.706 17.6275 7.76466 17.3635 7.882C17.1141 7.99933 16.9088 8.15333 16.7475 8.344C16.5861 8.52 16.4615 8.72533 16.3735 8.96C16.3001 9.18 16.2561 9.40733 16.2415 9.642L20.0035 9.026C19.9595 8.73266 19.7981 8.43933 19.5195 8.146C19.2408 7.85266 18.8301 7.706 18.2875 7.706Z" fill="#FF0000"/>
<path d="M4.30199 11.05V15.912C4.14066 15.956 3.88399 16 3.53199 16.044C3.17999 16.088 2.83533 16.11 2.49799 16.11C2.16066 16.11 1.85999 16.0807 1.59599 16.022C1.34666 15.978 1.13399 15.89 0.957993 15.758C0.781993 15.626 0.649993 15.4427 0.561993 15.208C0.473993 14.9733 0.429993 14.6653 0.429993 14.284V2.668C0.591326 2.63867 0.847993 2.602 1.19999 2.558C1.55199 2.49933 1.88933 2.47 2.21199 2.47C2.54933 2.47 2.84266 2.49933 3.09199 2.558C3.35599 2.602 3.57599 2.69 3.75199 2.822C3.92799 2.954 4.05999 3.13733 4.14799 3.372C4.23599 3.60667 4.27999 3.91467 4.27999 4.296V7.794L8.85599 2.536C9.85333 2.536 10.5647 2.72667 10.99 3.108C11.43 3.47467 11.65 3.91467 11.65 4.428C11.65 4.80934 11.5547 5.16867 11.364 5.506C11.1733 5.84333 10.8653 6.22467 10.44 6.65L7.68999 9.4C8.05666 9.81067 8.43799 10.236 8.83399 10.676C9.24466 11.116 9.64066 11.5487 10.022 11.974C10.418 12.3847 10.792 12.7807 11.144 13.162C11.5107 13.5433 11.826 13.8733 12.09 14.152C12.09 14.4747 12.0313 14.7607 11.914 15.01C11.7967 15.2593 11.6353 15.472 11.43 15.648C11.2393 15.824 11.0193 15.956 10.77 16.044C10.5207 16.132 10.2567 16.176 9.97799 16.176C9.37666 16.176 8.88533 16.0293 8.50399 15.736C8.12266 15.428 7.75599 15.0687 7.40399 14.658L4.30199 11.05Z" fill="#FF0000"/>
</svg>
